<?xml version="1.0" encoding="UTF-8"?>
<svg id="Layer_1" data-name="Layer 1" xmlns="http://www.w3.org/2000/svg" viewBox="0 0 278.09 97.62">
  <defs>
    <style>
      .cls-1 {
        fill: #0058a4;
      }
    </style>
  </defs>
  <g>
    <g>
      <path class="cls-1" d="M94.21,21.32h30.95s11.89.88,11.7,11.79c-.2,10.91-5.51,26.73-7.57,31.35-2.06,4.62-6.68,7.76-11.89,7.76h-34.69l7.27-31.25h20.05l-3.15,14.44s-.49,2.95,1.57,2.95,2.75-2.46,2.75-2.46l3.73-17.1s.29-3.63-3.73-3.63h-20.15l3.14-13.86Z"/>
      <path class="cls-1" d="M141.3,21.47h22.69s2.99.21,3.06,5.36c0,0,4.45-5.36,6.12-5.36h17.33s2.79-.14,4.53,5.15c0,0,3.83-5.15,7.94-5.15h15.1s4.87.49,3.62,5.43c-1.26,4.94-8.91,37.03-8.91,37.03,0,0-.9,3.62,2.44,4.87l-.84,3.41h-22.41s-3.9-.42-2.44-6.82c1.46-6.4,6.47-26.87,6.47-26.87,0,0,.84-3.9-1.53-3.9s-3.27,3.41-3.41,3.9c-.14.49-6.33,26.52-6.33,26.52,0,0-.83,2.99,2.02,4.11l-.62,3.06h-22.35s-2.92-.49-1.95-5.22c.98-4.73,6.47-28.54,6.47-28.54,0,0,1.18-4.11-1.39-4.11s-3.48,3.62-3.69,4.18c-.21.56-6.47,27-6.47,27,0,0-.63,2.93,2.37,3.76l-.56,2.92h-23.11s-3.76,0-2.3-5.5c1.46-5.5,9.33-38.35,9.33-38.35,0,0,.76-3.76-1.67-4.8l.49-2.09Z"/>
      <path class="cls-1" d="M223.5,23.98l.49-2.5h19.63s4.59-.14,4.73,4.59c.14,4.73.7,12.81.7,12.81l5.29-12.39s.77-1.67-1.11-2.79l.49-2.16h20.61s3.96.84,1.95,4.73c-2.02,3.9-25.13,45.94-25.13,45.94h-20.18l-4.11-43.36s-.28-3.69-3.34-4.87Z"/>
    </g>
    <g>
      <path class="cls-1" d="M30.6,78.02c23.31-6.35,22.11-32.36,32.09-46.15,4.38-6.05,10.73-9.2,16.13-6.22,1.78,4.48,2.78,9.19,2.78,14.28,0,22.06-18.27,39.94-40.8,39.94-3.82,0-7.6-.77-11.12-1.74l.92-.12Z"/>
      <path class="cls-1" d="M6.69,61.68c17.41,9.11,31.93-5.74,43.43-25.04,8.33-15.21,17.93-16.94,26.32-15.34l.79,1.72c-19.31-4.89-23.94,15.74-33.06,29.75-8.53,12.38-20.07,20.49-31.18,16.39l-.04-.02c-2.44-2.23-4.44-4.69-6.26-7.44v-.02Z"/>
      <path class="cls-1" d="M.38,45.41c9.47,16.33,31.49,9.48,42.6-4.81,6.48-7.14,15.47-24.46,32.01-21.56l.13-.07C67.9,7.71,55.39,0,40.8,0,18.27,0,0,17.88,0,39.94c0,1.84.13,3.65.38,5.43v.04Z"/>
    </g>
  </g>
  <g>
    <path class="cls-1" d="M1.73,89.44l2.13,5.37,2.13-5.37h1.7l-3.38,8h-.94L.02,89.44h1.7Z"/>
    <path class="cls-1" d="M11.28,89.44v8h-1.56v-8h1.56Z"/>
    <path class="cls-1" d="M16.5,89.44c1.1,0,1.67.29,2.04.6.61.52.79,1.2.79,1.8,0,.78-.31,1.46-.94,1.88-.2.14-.49.28-.88.35l2.49,3.37h-1.94l-2.13-3.21h-.19v3.21h-1.56v-8h2.31ZM15.74,93.12h.44c.3,0,1.54-.04,1.54-1.21s-1.22-1.2-1.51-1.2h-.47v2.41Z"/>
    <path class="cls-1" d="M26.2,93.16h3.67v.1c0,.54-.07,2.22-1.18,3.31-.83.83-1.85,1.06-2.84,1.06s-2.03-.2-2.9-1.08c-.28-.28-1.19-1.28-1.19-3.08,0-1.55.7-2.5,1.18-2.97.6-.61,1.61-1.22,3.15-1.22.6,0,1.24.1,1.85.42.52.26,1.08.74,1.5,1.46l-1.36.73c-.28-.54-.68-.82-.94-.95-.34-.17-.76-.25-1.13-.25-.64,0-1.35.23-1.85.71-.46.44-.8,1.21-.8,2.11,0,1.07.46,1.7.79,2.03.36.35.92.68,1.77.68.53,0,1.13-.14,1.57-.48.31-.24.62-.65.76-1.22h-2.06v-1.34Z"/>
    <path class="cls-1" d="M33.96,89.44v8h-1.56v-8h1.56Z"/>
    <path class="cls-1" d="M36.86,97.44v-8h1.08l4.87,5.34v-5.34h1.56v8h-1.08l-4.87-5.35v5.35h-1.56Z"/>
    <path class="cls-1" d="M48.84,89.44v8h-1.56v-8h1.56Z"/>
    <path class="cls-1" d="M56.48,95.76h-3.23l-.71,1.68h-1.69l3.44-8h1.22l3.35,8h-1.68l-.71-1.68ZM56.02,94.49l-1.14-2.88-1.14,2.88h2.28Z"/>
    <path class="cls-1" d="M66.85,89.44c1.12,0,2.09.12,2.97.78.97.73,1.54,1.89,1.54,3.23s-.55,2.48-1.61,3.23c-.94.66-1.81.77-2.93.77h-2.06v-8h2.09ZM66.32,96.1h.48c.4,0,1.26-.02,1.96-.53.64-.46,1-1.27,1-2.12s-.35-1.65-.98-2.13c-.65-.48-1.44-.53-1.97-.53h-.48v5.31Z"/>
    <path class="cls-1" d="M78.32,90.78h-2.88v1.79h2.76v1.34h-2.76v2.18h2.88v1.34h-4.44v-8h4.44v1.34Z"/>
    <path class="cls-1" d="M83.24,89.44c.9,0,1.52.1,2.11.61.65.58.82,1.36.82,1.93,0,.31-.05,1.18-.66,1.79-.44.44-1.1.71-2.03.71h-1.01v2.96h-1.56v-8h2.33ZM82.47,93.13h.64c.3,0,.68,0,1.02-.25.29-.23.43-.59.43-.94,0-.44-.22-.74-.44-.91-.32-.23-.73-.25-1.1-.25h-.54v2.35Z"/>
    <path class="cls-1" d="M92.42,95.76h-3.23l-.71,1.68h-1.69l3.44-8h1.22l3.35,8h-1.68l-.71-1.68ZM91.96,94.49l-1.14-2.88-1.14,2.88h2.28Z"/>
    <path class="cls-1" d="M99.14,89.44c1.1,0,1.67.29,2.04.6.61.52.79,1.2.79,1.8,0,.78-.31,1.46-.94,1.88-.2.14-.49.28-.88.35l2.49,3.37h-1.94l-2.13-3.21h-.19v3.21h-1.56v-8h2.31ZM98.39,93.12h.44c.3,0,1.54-.04,1.54-1.21s-1.22-1.2-1.51-1.2h-.47v2.41Z"/>
    <path class="cls-1" d="M107.31,90.78v6.66h-1.56v-6.66h-1.8v-1.34h5.16v1.34h-1.8Z"/>
    <path class="cls-1" d="M112.01,89.44h1.13l2.12,5.09,2.22-5.09h1.13l1.34,8h-1.58l-.72-4.93-2.15,4.93h-.53l-2.05-4.93-.82,4.93h-1.58l1.49-8Z"/>
    <path class="cls-1" d="M126.88,90.78h-2.88v1.79h2.76v1.34h-2.76v2.18h2.88v1.34h-4.44v-8h4.44v1.34Z"/>
    <path class="cls-1" d="M129.48,97.44v-8h1.08l4.87,5.34v-5.34h1.56v8h-1.08l-4.87-5.35v5.35h-1.56Z"/>
    <path class="cls-1" d="M142.41,90.78v6.66h-1.56v-6.66h-1.8v-1.34h5.16v1.34h-1.8Z"/>
    <path class="cls-1" d="M158.31,93.44c0,2.43-1.75,4.17-4.27,4.17s-4.27-1.74-4.27-4.17,1.75-4.19,4.27-4.19,4.27,1.75,4.27,4.19ZM156.7,93.44c0-1.62-1.1-2.77-2.66-2.77s-2.66,1.15-2.66,2.77,1.1,2.76,2.66,2.76,2.66-1.14,2.66-2.76Z"/>
    <path class="cls-1" d="M165.08,90.78h-2.69v1.79h2.52v1.34h-2.52v3.53h-1.56v-8h4.25v1.34Z"/>
    <path class="cls-1" d="M172.46,89.44h1.13l2.12,5.09,2.22-5.09h1.13l1.34,8h-1.58l-.72-4.93-2.15,4.93h-.53l-2.05-4.93-.82,4.93h-1.58l1.49-8Z"/>
    <path class="cls-1" d="M191.06,93.44c0,2.43-1.75,4.17-4.27,4.17s-4.27-1.74-4.27-4.17,1.75-4.19,4.27-4.19,4.27,1.75,4.27,4.19ZM189.45,93.44c0-1.62-1.1-2.77-2.66-2.77s-2.66,1.15-2.66,2.77,1.1,2.76,2.66,2.76,2.66-1.14,2.66-2.76Z"/>
    <path class="cls-1" d="M195.75,90.78v6.66h-1.56v-6.66h-1.8v-1.34h5.16v1.34h-1.8Z"/>
    <path class="cls-1" d="M207.42,93.44c0,2.43-1.75,4.17-4.27,4.17s-4.27-1.74-4.27-4.17,1.75-4.19,4.27-4.19,4.27,1.75,4.27,4.19ZM205.82,93.44c0-1.62-1.1-2.77-2.66-2.77s-2.66,1.15-2.66,2.77,1.1,2.76,2.66,2.76,2.66-1.14,2.66-2.76Z"/>
    <path class="cls-1" d="M212.26,89.44c1.1,0,1.67.29,2.04.6.61.52.79,1.2.79,1.8,0,.78-.31,1.46-.94,1.88-.2.14-.49.28-.88.35l2.49,3.37h-1.94l-2.14-3.21h-.19v3.21h-1.56v-8h2.31ZM211.51,93.12h.44c.3,0,1.54-.04,1.54-1.21s-1.22-1.2-1.51-1.2h-.47v2.41Z"/>
    <path class="cls-1" d="M222.61,89.44l2.13,5.37,2.13-5.37h1.7l-3.38,8h-.94l-3.36-8h1.7Z"/>
    <path class="cls-1" d="M235.04,90.78h-2.88v1.79h2.76v1.34h-2.76v2.18h2.88v1.34h-4.44v-8h4.44v1.34Z"/>
    <path class="cls-1" d="M239.19,92.53h3.38v-3.09h1.56v8h-1.56v-3.56h-3.38v3.56h-1.56v-8h1.56v3.09Z"/>
    <path class="cls-1" d="M248.6,89.44v8h-1.56v-8h1.56Z"/>
    <path class="cls-1" d="M257.31,97.15c-.48.25-1.12.47-1.98.47-1.4,0-2.25-.48-2.93-1.12-.92-.89-1.28-1.88-1.28-3.06,0-1.45.6-2.49,1.28-3.13.8-.76,1.8-1.06,2.94-1.06.56,0,1.24.1,1.97.49v1.82c-.73-.84-1.64-.9-1.93-.9-1.61,0-2.65,1.32-2.65,2.79,0,1.78,1.37,2.73,2.71,2.73.74,0,1.4-.32,1.87-.88v1.82Z"/>
    <path class="cls-1" d="M261.39,89.44v6.66h2.47v1.34h-4.03v-8h1.56Z"/>
    <path class="cls-1" d="M270.46,90.78h-2.88v1.79h2.76v1.34h-2.76v2.18h2.88v1.34h-4.44v-8h4.44v1.34Z"/>
    <path class="cls-1" d="M276.99,91.26c-.47-.62-1.02-.68-1.31-.68-.84,0-1.1.53-1.1.94,0,.19.06.37.25.54.19.18.46.28.96.46.62.22,1.21.43,1.62.8.36.32.68.86.68,1.68,0,1.56-1.13,2.63-2.78,2.63-1.47,0-2.34-.9-2.76-1.51l1.02-.97c.38.78,1.12,1.07,1.68,1.07.71,0,1.24-.43,1.24-1.1,0-.29-.1-.52-.31-.72-.3-.28-.78-.43-1.24-.59-.42-.14-.92-.34-1.33-.7-.26-.23-.64-.67-.64-1.49,0-1.17.79-2.35,2.57-2.35.5,0,1.45.1,2.27.94l-.82,1.07Z"/>
  </g>
</svg>